<?xml version="1.0" encoding="UTF-8" standalone="no"?>
<svg width="191px" height="362px" viewBox="0 0 191 362" version="1.1" xmlns="http://www.w3.org/2000/svg" xmlns:xlink="http://www.w3.org/1999/xlink" xmlns:sketch="http://www.bohemiancoding.com/sketch/ns">
    <!-- Generator: Sketch 3.3.3 (12081) - http://www.bohemiancoding.com/sketch -->
    <title>iphone</title>
    <desc>Created with Sketch.</desc>
    <defs></defs>
    <g id="Page-1" stroke="none" stroke-width="1" fill="none" fill-rule="evenodd" sketch:type="MSPage">
        <g id="iphone" sketch:type="MSLayerGroup" transform="translate(1.000000, 1.000000)" stroke="#82BCFF">
            <path d="M165.69637,359.825845 L23.3599044,359.825845 C10.4590943,359.825845 0.00145426785,349.385085 0.00145426785,336.502947 L0.00145426785,23.4410291 C0.00145426785,10.5588907 10.4590943,0.118131236 23.3599044,0.118131236 L165.69637,0.118131236 C178.59718,0.118131236 189.05482,10.5588907 189.05482,23.4410291 L189.05482,336.502947 C189.05482,349.385085 178.59718,359.825845 165.69637,359.825845 Z" id="bezel" fill="#FFFFFF" sketch:type="MSShapeGroup"></path>
            <path d="M111.978624,37.5482321 C111.978624,38.4743227 111.340201,39.2210288 110.553442,39.2210288 L81.3197494,39.2210288 C80.5315362,39.2210288 79.8945669,38.4728643 79.8945669,37.5482321 L79.8945669,33.7855335 C79.8945669,32.859443 80.5329905,32.1127369 81.3197494,32.1127369 L110.553442,32.1127369 C111.340201,32.1127369 111.978624,32.8609014 111.978624,33.7855335 L111.978624,37.5482321 L111.978624,37.5482321 Z" id="speaker" sketch:type="MSShapeGroup"></path>
            <ellipse id="camera" sketch:type="MSShapeGroup" cx="95.9816778" cy="17.5009239" rx="4.36280354" ry="4.37523096"></ellipse>
            <ellipse id="lock" sketch:type="MSShapeGroup" cx="94.5855807" cy="328.215325" rx="14.6008492" ry="14.5855616"></ellipse>
        </g>
    </g>
</svg>