<?xml version="1.0" encoding="UTF-8" standalone="no"?>
<svg width="680px" height="378px" viewBox="0 0 680 378" version="1.1" xmlns="http://www.w3.org/2000/svg" xmlns:xlink="http://www.w3.org/1999/xlink" xmlns:sketch="http://www.bohemiancoding.com/sketch/ns">
    <!-- Generator: Sketch 3.3.3 (12081) - http://www.bohemiancoding.com/sketch -->
    <title>Laptop</title>
    <desc>Created with Sketch.</desc>
    <defs></defs>
    <g id="Page-1" stroke="none" stroke-width="1" fill="none" fill-rule="evenodd" sketch:type="MSPage">
        <g id="Laptop" sketch:type="MSLayerGroup" transform="translate(1.000000, 1.000000)" stroke="#82BCFF">
            <path d="M582,0 L96.020202,0 C82.7969955,0 71.5252525,10.9003382 71.5252525,24.4017558 L71.5252525,345.528862 L606.494949,345.528852 L606.494949,24.4017558 C606.494921,10.8993563 595.263995,0 582,0 L582,0 Z" id="bezel" sketch:type="MSShapeGroup"></path>
            <ellipse id="webcam" sketch:type="MSShapeGroup" cx="339.989899" cy="18.7023499" rx="3.91919192" ry="3.93733681"></ellipse>
            <path d="M627.866303,376.025509 L50.2518788,376.025509 C20.2240101,376.025509 0,365.674251 0,361.272308 L0,347.891269 C0,346.568324 1.3080303,345.501305 2.93449495,345.501305 L675.182707,345.501305 C676.811131,345.501305 678.121121,346.568324 678.121121,347.891269 L678.121121,361.798927 C678.114263,365.278548 662.453172,376.025509 627.866303,376.025509 L627.866303,376.025509 Z" id="Shape" sketch:type="MSShapeGroup"></path>
            <path d="M412.494949,346.48564 L412.494949,349.524279 C412.494949,351.690799 408.24921,352.3451 405.035472,352.3451 L273.182654,352.3451 C269.801371,352.3451 265.525253,351.691783 265.525253,349.524279 L265.525253,346.48564" id="touchpad" sketch:type="MSShapeGroup"></path>
        </g>
    </g>
</svg>