<?xml version="1.0" standalone="no"?> 
<!DOCTYPE svg PUBLIC "-//W3C//DTD SVG 1.1//EN" "http://www.w3.org/Graphics/SVG/1.1/DTD/svg11.dtd" >
<svg xmlns="http://www.w3.org/2000/svg">
<defs>
  <font id="icons" horiz-adv-x="216">
    <font-face font-family="icons"
      units-per-em="512" ascent="448"
      descent="64" />
    <missing-glyph horiz-adv-x="0" />
    <glyph glyph-name="arrow-down"
      unicode="&#xF101;"
      horiz-adv-x="512" d=" M469.2549888 131.7418939733334C480.73722453333335 143.16191616000003 480.73722453333335 161.68289450666668 469.2549888 173.10291669333333C457.77039786666666 184.52527829333337 439.1532202666666 184.52527829333337 427.6686293333333 173.10291669333333L289.67240575999995 35.854418346666705L289.67240575999995 418.753887104C289.67240575999995 434.90476049066666 276.5058235733333 448 260.26696064 448C244.03044991999997 448 230.86151552 434.90476049066666 230.86151552 418.753887104L230.86151552 35.854418346666705L92.86528853333334 173.09823744000005C81.38069759999999 184.52059904000004 62.763524266666664 184.52059904000004 51.278933333333335 173.09823744000005C45.54134186666667 167.38939605333337 42.666666666666664 159.90239104 42.666666666666664 152.41772586666667C42.666666666666664 144.93306069333335 45.54134186666667 137.44839552000002 51.278933333333335 131.73721472L239.47378218666665 -55.43322879999994C250.95837311999998 -66.85559039999998 269.5755485866666 -66.85559039999998 281.0601390933333 -55.43322879999994L469.2549888 131.7418939733334L469.2549888 131.7418939733334z" />
    <glyph glyph-name="arrow-enlarge-left"
      unicode="&#xF102;"
      horiz-adv-x="512" d=" M6.455836560695651 329.5713480347826C6.398453526260869 350.6944041182609 23.480596591304348 367.77654717217393 44.60365312 367.71916410434784C65.73103816347826 367.66177024 82.90190469565216 350.4909037078261 82.95929856 329.3635183304348L83.64893684869566 75.50167930434787L436.80216932173914 428.65491099826085C451.698331826087 443.55107451547826 475.9199577043478 443.48527383373914 490.8972744347826 428.5079567582609C505.8724229565217 413.53280868173914 505.94039206956523 389.30901459478264 491.0442284521739 374.4128509773913L137.89099631304347 21.259619060869568L391.74852118260867 20.56566539130432C412.87590622608695 20.508270191304348 430.0467723130435 3.3374041043477973 430.1041675130435 -17.78998093913043C430.1306824347826 -28.347176069565194 425.8766714434782 -37.903890921739105 418.9734667130435 -44.80709565217393C412.0702597565217 -51.710302608695656 402.51570309565216 -55.96215652173913 391.956349773913 -55.93779756521735L45.75198864695652 -54.99297502608698C24.624604939130435 -54.935580939130375 7.453737995130435 -37.76471373913046 7.396343841391304 -16.637329808695654L6.455836560695651 329.5713480347826L6.455836560695651 329.5713480347826z" />
    <glyph glyph-name="arrow-enlarge-right"
      unicode="&#xF103;"
      horiz-adv-x="512" d=" M120.03879179130435 439.9340242921739C98.91573503999999 439.9914073266087 81.83359198608696 422.9092642504348 81.89097505391304 401.7862077217391C81.94836891826087 380.6588226782609 99.11923545043479 363.48795614608696 120.2466203826087 363.4305622817391L374.10846052173906 362.74092399304345L20.95522816 9.587691965217402C6.0590646316521735 -5.308471652173921 6.124865313391304 -29.53009641739135 21.102182399999997 -44.50741314782607C36.07733047652174 -59.48256166956514 60.301124563478254 -59.55053189565217 75.19728818086956 -44.65436827826085L428.3505196521739 308.4988638608696L429.0444744347826 54.641338991304394C429.1018696347826 33.51395506086959 446.27273572173914 16.34308897391304 467.4001196521739 16.285693773913067C477.95731589565213 16.25917773913045 487.5140296347826 20.513188730434763 494.41723547826086 27.416394573913067C501.3204413217391 34.319600417391314 505.5722952347826 43.87415819130439 505.5479373913043 54.43351039999999L504.60311373913044 400.63787219478263C504.54571965217394 421.7652559026087 487.3748524521739 438.93612284660867 466.2474685217391 438.9935170003478L120.03879179130435 439.9340242921739L120.03879179130435 439.9340242921739z" />
    <glyph glyph-name="arrow-next"
      unicode="&#xF104;"
      horiz-adv-x="602.3529411764706" d=" M372.06836003137255 437.86861337098037C358.6330403137255 451.3771288897255 336.8436535215686 451.3771288897255 323.4083338039216 437.86861337098037C309.97026032941176 424.3573302211765 309.97026032941176 402.45477084862745 323.4083338039216 388.9434877992157L484.8771553882353 226.59498767058827L34.40719159215686 226.59498767058827C15.40616412862745 226.59498767058827 0 211.10489047843137 0 192.0003463529412C0 172.8985690352941 15.40616412862745 157.4057050352941 34.40719159215686 157.4057050352941L484.8771553882353 157.4057050352941L323.41383830588234 -4.942795796078428C309.9757658352941 -18.454079247058814 309.9757658352941 -40.35663811764704 323.41383830588234 -53.86792156862742C330.13012279215684 -60.61802817254903 338.9383629803921 -64 347.7438514196078 -64C356.54934086274505 -64 365.35482930196076 -60.61802817254903 372.0738655372549 -53.86792156862742L592.2743868235294 167.53778346666667C605.7124592941177 181.04906591372549 605.7124592941177 202.95162578823528 592.2743868235294 216.46290823529412L372.06836003137255 437.86861337098037z" />
    <glyph glyph-name="arrow-prev"
      unicode="&#xF105;"
      horiz-adv-x="602.3529411764706" d=" M-974.4213012078432 437.8686133709804C-960.9859814901961 451.3771288897255 -939.1965946980393 451.3771288897255 -925.7612749803923 437.8686133709804C-912.3232015058823 424.3573302211765 -912.3232015058823 402.45477084862745 -925.7612749803923 388.9434877992157L-1087.2300965647057 226.59498767058827L-636.7601327686275 226.59498767058827C-617.759105305098 226.59498767058827 -602.3529411764706 211.10489047843137 -602.3529411764706 192.00034635294116C-602.3529411764706 172.8985690352941 -617.759105305098 157.4057050352941 -636.7601327686275 157.4057050352941L-1087.2300965647057 157.4057050352941L-925.766779482353 -4.942795796078428C-912.3287070117647 -18.454079247058814 -912.3287070117647 -40.35663811764715 -925.766779482353 -53.86792156862737C-932.4830639686274 -60.61802817254903 -941.2913041568627 -64 -950.0967925960784 -64C-958.9022820392157 -64 -967.7077704784314 -60.61802817254903 -974.4268067137255 -53.86792156862737L-1194.627328 167.53778346666672C-1208.0654004705882 181.04906591372549 -1208.0654004705882 202.95162578823525 -1194.627328 216.46290823529412L-974.4213012078432 437.8686133709804z" />
    <glyph glyph-name="behance"
      unicode="&#xF106;"
      horiz-adv-x="824.8888888888888" d=" M726.5857422222227 375.545582933332L524.9897244444453 375.545582933332L524.9897244444453 426.7589745777789L726.6025244444414 426.7589745777789L726.6025244444414 375.545582933332L726.5857422222227 375.545582933332L726.5857422222227 375.545582933332zM390.7825777777794 165.53623893333133C403.7905066666685 144.93035804444747 410.29063111110975 119.91098026666765 410.29063111110975 90.53741226666739C410.29063111110975 60.16138808889082 402.9619199999983 32.91134862222117 388.0516266666689 8.840863288891171C378.5659733333353 -7.087516444444191 366.7888355555543 -20.5422705777778 352.63800888888846 -31.374179555555884C336.70087111111366 -43.90108728888703 317.83253333333414 -52.490857244443305 296.14165333333136 -57.08035697777649C274.3813688888913 -61.67751111110874 250.82908444444183 -64 225.45863111110842 -64L0 -64L0 448L241.77009777777775 448C302.7108977777793 446.9860636444452 345.9154488888905 428.92841528889 371.42783999999904 393.46548622222485C386.7366399999979 371.71557831111 394.32163555555354 345.6172174222237 394.32163555555354 315.28136533333196C394.32163555555354 283.9794033777758 386.6450488888917 258.9332423111126 371.18663111111124 239.90374684444396C362.58759111111027 229.2344519111082 349.88458666666537 219.52934968888684 333.06823111111424 210.76931697777604C358.5396622222227 201.232566044446 377.8665244444467 186.2148181333323 390.7825777777794 165.53623893333133L390.7825777777794 165.53623893333133zM115.45486222222421 246.14424462221928L221.38823111110833 246.14424462221928C243.15790222222373 246.14424462221928 260.7561955555575 250.37599573333543 274.31025777777865 258.83567502222206C287.8549333333309 267.281962666667 294.6133333333354 282.29588480000126 294.6133333333354 303.85257244444483C294.6133333333354 327.66861653333115 285.6647111111088 343.47647146666554 267.7239466666684 351.0848255999994C252.30307555555675 356.37069084444215 232.57258666666974 359.0930175999981 208.63118222221965 359.0930175999981L115.45486222222421 359.0930175999981L115.45486222222421 246.14424462221928L115.45486222222421 246.14424462221928zM304.8135111111138 97.85115306666643C304.8135111111138 124.44691626666787 294.18495999999703 142.8336128000002 272.970808888889 152.69941475555407C261.1077688888892 158.30667662222146 244.3702044444443 161.17248568888886 222.9091555555545 161.37718613333226L115.45486222222421 161.37718613333226L115.45486222222421 24.931854222222114L221.24629333333317 24.931854222222114C242.98012444444205 24.931854222222114 259.80216888888714 27.84166115555371 271.9422577777748 33.91189333333432C293.8350933333341 45.072853333336184 304.8135111111138 66.31388159999756 304.8135111111138 97.85115306666643L304.8135111111138 97.85115306666643zM801.3838222222208 181.14513351111157C803.8192355555559 164.39412622222318 804.9211733333326 140.09024284444365 804.4740266666695 108.32340195555787L543.3847466666678 108.32340195555787C544.8251733333325 71.46583039999763 557.2662044444457 45.69078328888605 580.8614400000014 30.940865422223908C595.0907733333362 21.691081955556854 612.3431822222192 17.17427768888757 632.5449955555571 17.17427768888757C653.847040000003 17.17427768888757 671.2095288888861 22.68206080000124 684.5747200000009 34.00372053333558C691.8567822222249 40.00508302222528 698.2803911111097 48.47623964444375 703.8341688888871 59.164666311110466L799.5320888888866 59.164666311110466C797.0252800000017 37.39562951111134 785.5027200000023 15.316667733332451 764.7957333333325 -7.120039822223248C732.7135288888886 -42.781929244442495 687.7192533333307 -60.663571911113706 629.9337955555529 -60.663571911113706C582.1971911111096 -60.663571911113706 540.1264355555564 -45.58269155555814 503.60917333333055 -15.529978311109687C467.21365333333637 14.627956622221973 448.9346844444452 63.53798826666838 448.9346844444452 131.3856881777756C448.9346844444452 195.00928853333204 465.34513777777704 243.70696817777613 498.27612444444736 277.6030776888882C531.3291377777803 311.562322488889 573.9852800000032 328.4644608000009 626.5648355555539 328.4644608000009C657.7302755555526 328.4644608000009 685.8242844444467 322.76728320000177 710.8878222222232 311.31361848888787C735.8731377777747 299.8484764444422 756.5220977777757 281.80422257777536 772.784924444445 257.004851199997C787.5023644444428 235.1650275555569 796.9675377777764 209.91225173333402 801.3838222222208 181.14513351111157L801.3838222222208 181.14513351111157zM707.1880533333363 171.59116800000066C705.4333155555586 197.07733902221986 697.1130311111078 216.36701297777472 682.1319111111095 229.55011128889035C667.2739555555551 242.76955591111135 648.7122488888886 249.40606008889154 626.5648355555539 249.40606008889154C602.4610133333351 249.40606008889154 583.848675555556 242.31232568888746 570.6239999999977 228.3697351111138C557.3091555555584 214.45583928888664 549.0247111111141 195.53921422221984 545.6295822222212 171.58925368889084L707.1880533333363 171.58925368889084L707.1880533333363 171.59116800000066L707.1880533333363 171.59116800000066z" />
    <glyph glyph-name="close"
      unicode="&#xF107;"
      horiz-adv-x="512" d=" M512 418.32499991272726L482.3182219636364 448L256 221.6674557672727L29.680941149090913 448L0 418.32499991272726L226.3190588509091 191.99077934545454L0 -34.32583912727273L29.680941149090913 -64L256 162.31661847272727L482.3182219636364 -64L512 -34.32583912727273L285.66504494545455 191.99077934545454L512 418.32499991272726z" />
    <glyph glyph-name="contact"
      unicode="&#xF108;"
      horiz-adv-x="512" d=" M501.2149586823529 211.6905479529412L463.2317801411765 249.4731361882353C458.02068103529416 254.6303299764706 452.0626492235294 257.10337505882353 445.3576847058824 257.10337505882353C439.39965289411765 257.10337505882353 434.41595331764705 255.15643934117648 430.21653232941173 250.94673769411764L400.17739670588236 220.84716423529412L277.54269590588234 99.50137976470586C275.7998531764706 97.7655476705882 274.6885835294118 95.50195651764705 274.06862983529413 93.29279096470589L253.71056865882352 21.77898917647059C252.21753374117645 16.517068047058842 252.96446644705884 12.149038682352966 256.6866800941176 8.465446400000019C259.41962315294114 5.729346258823568 262.6455416470588 4.519624282352936 266.36858503529413 4.519624282352936C267.363665317647 4.519624282352936 269.59367378823526 4.99295774117644 270.58875407058827 4.99295774117644L342.08513505882354 25.724811294117615C344.8180781176471 26.19979444705882 347.05223604705884 27.462292329411753 348.2921441882353 29.198948894117677L470.92684498823525 150.5439096470588L500.7178330352941 180.90653741176476C504.8848865882353 185.11623905882357 507.42196781176466 190.01120301176474 507.9149432470589 195.43062663529412C507.9141135058823 201.85031905882352 505.6791250823529 207.27056715294117 501.2149586823529 211.6905479529412L501.2149586823529 211.6905479529412zM331.40814908235296 50.879119058823505L286.2286908235294 37.828631341176504L299.3838328470588 82.71617279999998L409.3555373176471 191.95731350588233L441.8786386823529 160.17385938823526L331.40814908235296 50.879119058823505L331.40814908235296 50.879119058823505zM461.24576903529413 179.38180894117647L428.72266767058824 211.21721449411763L445.8506601411765 228.2663002352941L477.8749771294118 196.43007021176473L461.24576903529413 179.38180894117647L461.24576903529413 179.38180894117647z M219.20228668235293 113.55213477647061C221.90286230588234 110.81603538823532 225.16031849411763 109.60466371764704 228.88336188235294 109.60466371764704L229.38131651764706 109.60466371764704C233.60231529411766 109.60466371764704 236.86475068235293 110.81603538823532 239.56034710588233 113.55213477647061L430.7086780235294 308.1467295623529L430.7086780235294 275.83716592941175L458.02068103529416 275.83716592941175L458.02068103529416 349.6129097035294C458.02068103529416 366.34616470588236 445.1087073882353 379.92276190569413 428.2296922352941 379.92276190569413L30.039136150588234 379.92276190569413C21.597138823529413 379.92276190569413 14.400029063529411 376.97555840752943 8.690974795294117 371.0819760188235C2.9761111265882354 365.1356178070588 0 357.97953724235293 0 349.6129097035294L0 34.35614268235298C0 26.19979444705882 2.918016376470588 18.98928865882357 8.690974795294117 13.149306729411762C14.336954729411765 7.414052141176455 21.602948291764704 4.519624282352936 30.039136150588234 4.519624282352936L238.56443708235295 4.519624282352936L238.56443708235295 31.88227312941177L30.039136150588234 31.88227312941177C28.302103115294116 31.88227312941177 27.555170559999997 32.62031058823533 27.555170559999997 34.35614268235298L27.555170559999997 308.1467295623529L219.20228668235293 113.55213477647061L219.20228668235293 113.55213477647061zM27.555170559999997 349.6129097035294C27.555170559999997 351.5598451952941 28.301273148235296 352.5592886211765 30.039136150588234 352.5592886211765L428.2247122823529 352.5592886211765C429.96174531764706 352.5592886211765 430.707848282353 351.5598451952941 430.707848282353 349.6129097035294L430.707848282353 347.13904L229.38131651764706 142.38756065882353L27.555170559999997 347.13904L27.555170559999997 349.6129097035294L27.555170559999997 349.6129097035294z" />
    <glyph glyph-name="dribbble"
      unicode="&#xF109;"
      horiz-adv-x="512" d=" M256.343608888888 448C114.9969066666672 447.99471217778046 0.0054044444437345695 333.1616967111089 0 192C0.0054044444437345695 50.838303288891154 114.9969066666672 -64 256.343608888888 -64C397.69059555555253 -64 512.682097777776 50.838303288891154 512.6875022222197 192C512.682097777776 333.1616967111089 397.69059555555253 447.99471217778046 256.343608888888 448L256.343608888888 448zM425.00266666666397 327.15987911110926C454.2344533333348 290.93216426666675 472.02304000000004 245.15442346666373 472.8479288888888 195.31025351111182C463.11822222222366 197.2773688888863 421.9039288888905 204.98719288888648 372.65749333333224 204.98719288888648C356.77240888888866 204.98719288888648 340.0519111111126 204.17813902222164 323.2890311111114 202.12112782222297C321.8773333333342 205.54771626666965 320.4494222222193 208.99545600000098 318.97400888888575 212.45377137777785C314.61688888889165 222.68065848889012 309.9477333333343 232.82293759999772 305.082595555558 242.80128853333494C380.8537600000014 274.02660408888994 417.43559111110835 317.3613141333335 425.00266666666397 327.15987911110926L425.00266666666397 327.15987911110926zM256.343608888888 407.93852871111204C310.9575111111108 407.93852871111204 360.88632888888884 387.6381070222253 399.022933333336 354.2077184000001C392.97905777777646 345.9638101333338 360.24661333333154 305.0615551999977 287.1725511111112 277.4267534222195C253.35608888888964 339.2798492444433 216.31402666666932 390.46186951111304 207.50421333333037 402.354457599997C223.20952888888615 405.9978524444418 239.54915555555553 407.93852871111204 256.343608888888 407.93852871111204L256.343608888888 407.93852871111204zM163.31804444444262 386.9242339555575C170.78471111111057 376.6550442666695 207.85322666666858 324.92307626666866 242.54207999999764 263.56176213333515C149.44256000000232 239.0997276444428 66.76024888889191 237.492192711112 46.814151111110625 237.492192711112L44.69902222221976 237.492192711112C59.02392888888587 303.5650673777758 103.67544888888692 358.4697998222222 163.31804444444262 386.9242339555575L163.31804444444262 386.9242339555575zM39.775857777781006 191.666858666667C39.775857777781006 193.44360960000066 39.818239999999705 195.22564551111364 39.871146666668615 197.00768426666684C41.16679111110796 196.98653297777574 43.06488888888594 196.96538168889109 45.55036444444623 196.96538168889109C72.41301333333185 196.96538168889109 165.70311111110883 199.20218168889147 261.83253333333414 227.7359331555587C267.6650666666683 216.31397262222083 273.2282311111081 204.73337173333212 278.37866666666616 193.16334933333565C275.97255111111247 192.46533973333297 273.56643555555235 191.7567544888912 271.18705777778007 190.99000320000215C162.95850666666712 156.02610915555852 103.44817777778047 63.48706986666531 94.29987555555353 48.36883342222109C60.393528888888085 86.56894862222384 39.775857777781006 136.74625991110872 39.775857777781006 191.666858666667L39.775857777781006 191.666858666667zM256.343608888888 -24.610096355557346C206.65287111111036 -24.610096355557346 160.84337777777625 -7.783856355552814 124.25614222221904 20.41675662222167C130.4376888888914 32.547302400001286 175.33240888888636 113.39998435555674 293.95683555555297 154.6882588444472C294.04159999999683 154.71469795555782 294.12607999999693 154.7464277333347 294.20543999999705 154.77815466666493C323.9290311111124 77.33090986666502 336.53020444444456 12.336776533332284 340.00440888888744 -7.794431999998324C314.25194666666596 -18.61885439999685 285.9827200000032 -24.610096355557346 256.343608888888 -24.610096355557346L256.343608888888 -24.610096355557346zM378.99235555555464 13.521274311112336C376.0893155555564 30.178304000000935 364.4239644444444 91.09542968888616 337.48195555555867 165.38577351111195C352.5947733333321 167.72304497777566 367.3005511111114 168.64843377777532 381.08103111111427 168.64843377777532C426.3406933333349 168.65372160000135 461.74862222222146 158.74411235555698 469.9767466666655 156.2429155555567C460.1941333333315 97.22416071111286 426.41464888889135 46.19019946666799 378.99235555555464 13.521274311112336L378.99235555555464 13.521274311112336z" />
    <glyph glyph-name="email"
      unicode="&#xF10A;"
      horiz-adv-x="512" d=" M480 401.45454545454544L32 401.45454545454544C14.336 401.45454545454544 0 387.1185454545454 0 369.45454545454544L0 17.45454545454544C0 -0.22534981818182587 14.336 -14.545454545454561 32 -14.545454545454561L480 -14.545454545454561C497.67989527272726 -14.545454545454561 512 -0.22534981818182587 512 17.45454545454544L512 369.45454545454544C512 387.1185454545454 497.67989527272726 401.45454545454544 480 401.45454545454544L480 401.45454545454544zM464 33.45454545454544L48 33.45454545454544L48 278.2382317381818L235.42379054545455 120.9580218181818C241.39210472727274 115.96602181818179 248.704 113.45370996363636 256 113.45370996363636C263.31189527272727 113.45370996363636 270.60789527272726 115.96602181818179 276.57620945454545 120.9580218181818L464 278.2382317381818L464 33.45454545454544L464 33.45454545454544zM464 340.8946499490909L256 166.36623127272725L48 340.8946499490909L48 353.45454545454544L464 353.45454545454544L464 340.8946499490909L464 340.8946499490909z" />
    <glyph glyph-name="facebook"
      unicode="&#xF10B;"
      horiz-adv-x="757.4794520547945" d=" M415.028602739726 273.14498630136984V313.7157260273973C415.028602739726 319.80712328767123 415.30915068493147 324.52383561643836 415.8807671232876 327.85534246575344C416.44887671232874 331.1938630136986 417.7393972602739 334.4762739726027 419.74180821917804 337.716602739726C421.7407123287671 340.95342465753424 424.98104109589036 343.1907945205479 429.45578082191776 344.4287123287671C433.9340273972602 345.6701369863014 439.8886575342465 346.28734246575345 447.3196712328766 346.28734246575345H487.886904109589V427.42882191780825H423.0312328767123C385.50093150684927 427.42882191780825 358.5507945205479 418.5249315068493 342.170301369863 400.71715068493154C325.78980821917804 382.90586301369865 317.60131506849314 356.6711232876712 317.60131506849314 322.0024109589041V273.14498630136984H269.02443835616435V192H317.59780821917803V-43.42882191780825H415.028602739726V192H479.88427397260267L488.45501369863 273.14498630136984H415.028602739726z" />
    <glyph glyph-name="google"
      unicode="&#xF10C;"
      horiz-adv-x="757.4794520547945" d=" M414.59726027397255 126.99704109589044C409.550904109589 133.76175342465757 403.98202739726025 140.04953424657532 397.8836164383561 145.8533698630137C391.7887123287671 151.66071232876715 385.69030136986294 156.94904109589044 379.598904109589 161.70783561643833C373.50399999999996 166.47013698630138 367.9316164383561 171.0430684931507 362.8852602739725 175.42663013698632C357.838904109589 179.80317808219183 353.74290410958895 184.37961643835615 350.6007671232876 189.1384109589041C347.45863013698624 193.90071232876716 345.88756164383557 198.75769863013699 345.88756164383557 203.7093698630137C345.88756164383557 210.5687671232877 348.07934246575337 216.99682191780823 352.45939726027393 222.9970410958904S362.1733698630136 234.80460273972602 368.45764383561635 240.42608219178084S381.0261917808219 252.18805479452055 387.3139726027396 258.85457534246575C393.5947397260273 265.52460273972605 398.9286575342465 274.33030136986304 403.3122191780821 285.285698630137C407.68876712328756 296.2375890410959 409.88054794520536 308.76054794520553 409.88054794520536 322.85457534246575C409.88054794520536 339.61731506849316 406.16679452054785 355.7137534246575 398.73578082191773 371.14038356164383C391.3082739726027 386.5705205479452 380.83331506849305 398.5709589041096 367.3073972602739 407.141698630137H405.8792328767122L444.4475616438355 429.7152876712329H319.5967123287671C301.88361643835617 429.7152876712329 284.0723287671233 427.80756164383564 266.1733698630137 423.9921095890411C239.70016438356166 418.0865753424657 217.4141369863014 404.6097534246575 199.31879452054798 383.5651506849315C181.22345205479454 362.5170410958904 172.17578082191784 338.65994520547946 172.17578082191784 311.9938630136986C172.17578082191784 283.802301369863 182.321095890411 260.3730410958904 202.60471232876714 241.70958904109588C222.8883287671233 223.04613698630135 247.2223561643836 213.71090410958905 275.60328767123286 213.71090410958905C281.31594520547947 213.71090410958905 287.98246575342466 214.18783561643835 295.6028493150685 215.13819178082193C295.2206027397261 213.61621917808222 294.55780821917807 211.5682191780822 293.6039452054795 208.99769863013697S291.889095890411 204.37567123287673 291.31747945205484 202.853698630137C290.7458630136987 201.33172602739728 290.2689315068493 199.47660273972605 289.89019178082197 197.28482191780824C289.50794520547953 195.09304109589044 289.3185753424658 192.8521643835617 289.3185753424658 190.56920547945208C289.3185753424658 177.9971506849315 295.40997260273974 163.8049315068493 307.6032876712329 147.99605479452055C293.1270136986302 147.610301369863 278.8436164383562 146.32679452054794 264.74608219178083 144.13501369863013C250.65205479452055 141.94323287671233 235.8917260273973 138.51353424657538 220.46158904109592 133.8459178082192C205.03495890410963 129.1818082191781 191.22498630136988 122.41709589041096 179.0351780821918 113.56230136986301C166.84536986301373 104.70400000000001 157.70301369863017 94.18345205479454 151.60810958904113 81.99013698630137C144.55934246575347 67.89260273972604 141.03495890410963 55.03649315068492 141.03495890410963 43.41830136986306C141.03495890410963 30.656876712328824 143.89304109589045 19.087780821917818 149.60569863013703 8.704000000000008C155.3183561643836 -1.672767123287656 162.65117808219182 -10.152328767123322 171.60416438356168 -16.720657534246527C180.5571506849315 -23.295999999999992 190.89183561643839 -28.815780821917826 202.60471232876716 -33.29753424657531C214.31758904109594 -37.76876712328766 225.93578082191786 -40.96350684931508 237.45928767123294 -42.86772602739728S260.3625205479453 -45.72230136986303 271.6019726027398 -45.72230136986303C322.6476712328768 -45.72230136986303 362.6503013698631 -33.248438356164456 391.5993424657535 -8.297205479452089C418.2654246575343 14.94268493150679 431.59846575342476 41.8016438356164 431.59846575342476 72.2796712328767C431.59846575342476 83.14038356164377 430.0273972602741 93.27868493150686 426.88175342465763 102.70860273972596C423.7396164383561 112.14553424657538 419.6471232876712 120.23583561643835 414.59726027397255 126.99704109589044zM304.4541369863013 230.8488767123288C294.7401643835616 230.8488767123288 285.5031232876712 233.32471232876716 276.73950684931503 238.27989041095893C267.97589041095887 243.2350684931507 260.5483835616438 249.66312328767125 254.45347945205472 257.56756164383563C248.36208219178076 265.472 243.02816438356157 274.37589041095896 238.45523287671227 284.28273972602744C233.88580821917802 294.1860821917808 230.505205479452 304.0894246575343 228.3134246575342 313.99627397260275C226.1216438356164 323.8996164383562 225.02750684931502 333.32953424657535 225.02750684931502 342.28252054794524C225.02750684931502 360.56723287671235 229.8844931506849 376.2814246575343 239.59846575342462 389.425095890411C249.31243835616434 402.56876712328767 263.0277260273972 409.14060273972603 280.7408219178082 409.14060273972603C293.3128767123287 409.14060273972603 304.692602739726 405.2374794520548 314.88350684931504 397.4277260273973C325.0744109589041 389.61797260273977 333.0735342465753 379.71463013698633 338.8843835616438 367.7141917808219C344.69172602739724 355.7137534246575 349.1699726027397 343.28898630136985 352.31210958904103 330.42936986301373C355.4542465753424 317.57326027397266 357.02531506849306 305.4290410958904 357.02531506849306 294.00021917808226C357.02531506849306 274.95101369863016 352.8837260273972 259.65764383561645 344.59704109589035 248.1341369863014C336.3103561643835 236.6106301369863 322.93172602739725 230.8488767123288 304.4541369863013 230.8488767123288zM383.45293150684927 16.28931506849318C378.21720547945205 7.336328767123291 371.12284931506844 0.3366575342465694 362.1698630136986 -4.706191780821939C353.2168767123287 -9.756054794520537 343.6466849315068 -13.469808219178105 333.45578082191776 -15.854465753424677C323.2648767123287 -18.239123287671305 312.5514520547945 -19.42794520547949 301.31199999999995 -19.42794520547949C289.1221917808219 -19.42794520547949 277.0235616438356 -17.997150684931626 265.0266301369863 -15.142575342465761C253.02969863013695 -12.288000000000068 241.5517808219178 -7.9465205479452266 230.59989041095892 -2.142684931506892C219.64800000000002 3.664657534246544 210.789698630137 11.667287671232828 204.02849315068494 21.861698630136914C197.2672876712329 32.04909589041091 193.88668493150686 43.62169863013696 193.88668493150686 56.575999999999965C193.88668493150686 68.00131506849311 196.45720547945206 78.19221917808215 201.60175342465755 87.14520547945199C206.74630136986303 96.09819178082188 213.3181369863014 103.24515068493145 221.3172602739726 108.57205479452051C229.31638356164385 113.90597260273967 238.6481095890411 118.28953424657527 249.31594520547947 121.71221917808214C259.98378082191783 125.14542465753419 270.2693698630137 127.52306849315062 280.1727123287671 128.85567123287666C290.07605479452053 130.1917808219178 300.17227397260274 130.8545753424657 310.4578630136986 130.8545753424657C316.7456438356164 130.8545753424657 321.5079452054794 130.66169863013693 324.74476712328766 130.28646575342458C325.8879999999999 129.5184657534246 328.79167123287664 127.52306849315062 333.45928767123286 124.28624657534237C338.126904109589 121.04591780821909 341.2690410958904 118.85413698630128 342.889205479452 117.71090410958897C344.50586301369856 116.5711780821917 347.45863013698624 114.37939726027389 351.74399999999997 111.14257534246565C356.02936986301364 107.90224657534236 359.07682191780816 105.47550684931497 360.8863561643835 103.85534246575332C362.6923835616438 102.23868493150678 365.31199999999995 99.80843835616429 368.7416986301369 96.57161643835605C372.1678904109589 93.33128767123276 374.69282191780815 90.52580821917797 376.3129863013698 88.14465753424645C377.9296438356164 85.76350684931492 379.93205479452047 82.8598356164382 382.313205479452 79.43364383561635C384.6943561643835 76.0004383561643 386.36010958904103 72.71452054794514 387.3139726027397 69.57238356164373C388.26432876712323 66.42673972602728 389.1690958904109 63.000547945205426 390.02476712328763 59.286794520547915C390.88043835616435 55.5660273972602 391.3082739726027 51.71199999999993 391.3082739726027 47.71068493150676C391.31178082191775 35.71375342465757 388.6921643835616 25.23879452054797 383.45293150684927 16.28931506849318z M543.3161643835616 356.57293150684933L543.3161643835616 429.7152876712329L506.73972602739724 429.7152876712329L506.73972602739724 356.57293150684933L433.5973698630137 356.57293150684933L433.5973698630137 320L506.73972602739724 320L506.73972602739724 246.85764383561644L543.3161643835616 246.85764383561644L543.3161643835616 320L616.451506849315 320L616.451506849315 356.57293150684933z" />
    <glyph glyph-name="linkedin"
      unicode="&#xF10D;"
      horiz-adv-x="540.4444444444445" d=" M536.3808711111132 134.09320675555824L536.3808711111132 -64L421.417244444446 -64L421.417244444446 120.826117688887C421.417244444446 167.25594453333179 404.7889066666636 198.9424867555564 363.17582222222376 198.9424867555564C331.40935111111156 198.9424867555564 312.505173333332 177.58807893333466 304.1885866666691 156.93128533333464C301.15584000000183 149.54656142222103 300.3750400000006 139.2679935999978 300.3750400000006 128.9308757333331L300.3750400000006 -64L185.37272888888967 -64C185.37272888888967 -64 186.9215288888857 249.0347776000013 185.37272888888967 281.46751715555246L300.3639466666694 281.46751715555246L300.3639466666694 232.49887857777586C300.1307022222253 232.13263075555574 299.82776888888714 231.73773368889104 299.6081777777807 231.38269866666656L300.3639466666694 231.38269866666656L300.3639466666694 232.49887857777586C315.6417422222245 256.004670577777 342.9259377777796 289.58348515555394 403.99701333333115 289.58348515555394C479.6598044444431 289.5847310222194 536.3808711111132 240.20749368889182 536.3808711111132 134.09320675555824L536.3808711111132 134.09320675555824zM65.07520000000173 448C25.7331200000028 448 0 422.2219832888869 0 388.32301511111046C0 355.16276906666786 24.98844444444532 328.60243057777797 63.548871111111815 328.60243057777797L64.31715555555678 328.60243057777797C104.4212622222193 328.60243057777797 129.36220444444592 355.15778559999956 129.36220444444592 388.32301511111046C128.60672000000096 422.2219832888869 104.4212622222193 448 65.07520000000173 448L65.07520000000173 448zM6.830079999998108 -64L121.78887111110896 -64L121.78887111110896 281.46751715555246L6.830079999998108 281.46751715555246L6.830079999998108 -64L6.830079999998108 -64z" />
    <glyph glyph-name="pause"
      unicode="&#xF10E;"
      horiz-adv-x="512" d=" M0 448L213.33375999999998 448L213.33375999999998 -64L0 -64L0 448L0 448zM298.66624 448L512 448L512 -64L298.66624 -64L298.66624 448L298.66624 448z" />
    <glyph glyph-name="play"
      unicode="&#xF10F;"
      horiz-adv-x="512" d=" M46.54545454545455 448L46.54545454545455 -64L473.21212043636365 192L46.54545454545455 448z" />
    <glyph glyph-name="shape-g-stroke"
      unicode="&#xF110;"
      horiz-adv-x="623.304347826087" d=" M33.391304347826086 -30.60869565217388L33.391304347826086 -64L66.62134950956522 -64L509.6886182956522 -64L542.9186626782608 -64L542.9186626782608 -30.60869565217388L542.9186626782608 192L542.9186626782608 225.3913043478261L509.6886182956522 225.3913043478261L288.1549835130435 225.3913043478261L311.6521739130435 168.3887827478261L533.1858075826087 390.9974779547826L589.9130434782609 448L509.6886182956522 448L66.62134950956522 448L33.391304347826086 448L33.391304347826086 414.60869565217394L33.391304347826086 -30.60869565217388zM66.62134950956522 381.2173913043478L509.6886182956522 381.2173913043478L486.19142789565217 438.219913394087L264.65779311304345 215.61121725217393L207.9305583304348 158.60869565217394L288.1549835130435 158.60869565217394L509.6886182956522 158.60869565217394L476.4585728 192L476.4585728 -30.60869565217388L509.6886182956522 2.7826086956521863L66.62134950956522 2.7826086956521863L99.85139456 -30.60869565217388L99.85139456 414.60869565217394L66.62134950956522 381.2173913043478z" />
    <glyph glyph-name="shape-g"
      unicode="&#xF111;"
      horiz-adv-x="512" d=" M0 448L2.8748544384e-14 -64L512 -64L512 192L256 192L512 448L0 448z" />
    <glyph glyph-name="shape-u-stroke"
      unicode="&#xF112;"
      horiz-adv-x="623.304347826087" d=" M77.91304347826087 374.19352564869564L77.91304347826087 -33.428358678260906L77.91304347826087 -64L108.40075597913044 -64L514.9035709217391 -64L545.3912820869565 -64L545.3912832 -33.42835979130439L545.3913010086956 374.19352420173914L545.3913043478261 448L493.3455204173913 395.8109405495652L290.09410448695655 191.99999888695652L333.21024 191.99999888695652L129.9588240695652 395.8109405495652L77.91304347826087 447.9999967136424L77.91304347826087 374.19352564869564L77.91304347826087 374.19352564869564zM138.8884680347826 374.19352564869564L86.84268766608696 352.5761107478261L290.09410448695655 148.7651684173913L311.65217279999996 127.14775373913045L333.21024 148.7651684173913L536.4616570434782 352.5761107478261L484.4158764521739 374.19352698434784L484.4158575304347 -33.42835756521737L514.9035709217391 -2.856717356521699L108.40075597913044 -2.856717356521699L138.8884680347826 -33.428358678260906L138.8884680347826 374.19352564869564L138.8884680347826 374.19352564869564z" />
    <glyph glyph-name="shape-u"
      unicode="&#xF113;"
      horiz-adv-x="512" d=" M-1.4943810816e-14 448L-1.4943810816e-14 -64L511.99997696 -64L512 448L256 192L-1.4943810816e-14 448z" />
    <glyph glyph-name="shape-x-down"
      unicode="&#xF114;"
      horiz-adv-x="512" d=" M256 192L512 -64L0 -64z" />
    <glyph glyph-name="shape-x-stroke"
      unicode="&#xF115;"
      horiz-adv-x="623.304347826087" d=" M288.04095666086954 168.3887827478261L510.6496523130435 -54.21991290434784L534.2608695652174 2.7826086956521863L89.04347826086956 2.7826086956521863L112.65469551304348 -54.21991290434784L335.2633911652174 168.3887827478261L288.04095666086954 168.3887827478261L288.04095666086954 168.3887827478261zM335.2633911652174 215.61121725217393L311.6521739130435 239.2224356173913L288.04095666086954 215.61121725217393L65.43226056347827 -6.997478399999977L8.429738440347826 -64L89.04347826086956 -64L534.2608695652174 -64L614.8746095304348 -64L557.8720868173913 -6.997478399999977L335.2633911652174 215.61121725217393L335.2633911652174 215.61121725217393z M89.04347826086956 381.2173913043478L534.2608695652174 381.2173913043478L510.6496523130435 438.219913394087L288.04095666086954 215.61121725217393L335.2633911652174 215.61121725217393L112.65469551304348 438.219913394087L89.04347826086956 381.2173913043478L89.04347826086956 381.2173913043478zM89.04347826086956 448L8.429738440347826 448L65.43226056347827 390.9974779547826L288.04095666086954 168.3887827478261L311.6521739130435 144.77756438260872L335.2633911652174 168.3887827478261L557.8720868173913 390.9974779547826L614.8746095304348 448L534.2608695652174 448L89.04347826086956 448L89.04347826086956 448z" />
    <glyph glyph-name="shape-x-up"
      unicode="&#xF116;"
      horiz-adv-x="512" d=" M0 448L512 448L256 192L0 448z" />
    <glyph glyph-name="shape-x"
      unicode="&#xF117;"
      horiz-adv-x="512" d=" M256 192L512 -64L0 -64z M0 448L512 448L256 192L0 448z" />
    <glyph glyph-name="twitter"
      unicode="&#xF118;"
      horiz-adv-x="757.4794520547945" d=" M603.8829589041095 331.42882191780825C586.1698630136987 323.8084383561644 568.4497534246574 319.04964383561645 550.7436712328766 317.1384109589041C570.7432328767123 329.13884931506846 584.2691506849314 346.0909589041096 591.3179178082191 367.99473972602743C573.0261917808218 357.1410410958904 553.5035616438356 349.71353424657536 532.7430136986301 345.7122191780822C514.4547945205479 365.1401643835617 491.982904109589 374.85764383561644 465.31331506849307 374.85764383561644C439.79046575342454 374.85764383561644 418.03046575342455 365.8590684931507 400.0263013698629 347.85841095890413C382.02564383561634 329.8577534246575 373.0270684931506 308.0977534246575 373.0270684931506 282.57490410958906C373.0270684931506 275.7190136986302 373.78805479452046 268.6702465753425 375.3135342465753 261.43210958904115C337.5973698630136 263.3363287671233 302.2167671232876 272.8118356164384 269.1682191780821 289.85863013698633C236.11967123287667 306.9089315068494 208.07189041095884 329.622794520548 185.0248767123287 358.0037260273973C176.643506849315 343.7203287671233 172.45282191780814 328.19550684931505 172.45282191780814 311.4327671232877C172.45282191780814 295.62389041095895 176.16657534246568 280.95473972602747 183.5975890410958 267.4323287671233C191.02509589041088 253.9099178082192 201.0266301369862 242.9580273972603 213.59868493150677 234.5766575342466C198.74016438356153 235.14827397260277 184.83550684931498 239.05490410958907 171.88471232876705 246.29304109589046V245.1498082191781C171.88471232876705 222.86378082191783 178.88438356164377 203.29556164383564 192.8837260273972 186.43463013698636C206.8830684931506 169.57369863013707 224.5505753424657 158.95846575342472 245.88273972602732 154.57841095890416C237.88361643835606 152.4848219178083 229.7863013698629 151.4362739726028 221.597808219178 151.4362739726028C216.26389041095882 151.4362739726028 210.45304109589034 151.91320547945207 204.1687671232876 152.86005479452064C210.07430136986295 134.3859726027398 220.931506849315 119.19780821917811 236.74038356164377 107.2920547945206C252.54926027397252 95.38279452054803 270.4552328767123 89.24580821917817 290.45479452054786 88.86005479452064C256.93282191780816 62.57972602739733 218.74323287671228 49.4360547945206 175.88602739726022 49.4360547945206C167.69402739726021 49.4360547945206 160.26652054794513 49.81128767123295 153.59999999999994 50.575780821917874C196.457205479452 22.95934246575348 243.6944657534246 9.152876712328862 295.3152876712328 9.152876712328862C328.0762739726027 9.152876712328862 358.8383561643835 14.339506849315114 387.5945205479451 24.71978082191788C416.36120547945194 35.10005479452059 440.9301917808218 49.00471232876714 461.31199999999995 66.43726027397264C481.690301369863 83.862794520548 499.2631232876712 103.91145205479455 514.0234520547945 126.57972602739727C528.7837808219177 149.24449315068495 539.7812602739725 172.90871232876714 547.022904109589 197.57589041095892C554.2610410958904 222.24657534246577 557.880109589041 246.95583561643838 557.880109589041 271.72120547945207C557.880109589041 277.0551232876712 557.7854246575342 281.05293150684935 557.5925479452054 283.7216438356164C575.691397260274 296.85830136986306 591.1215342465754 312.7653698630137 603.8829589041095 331.42882191780825z" />
  </font>
</defs>
</svg>
