<?xml version="1.0" encoding="UTF-8" standalone="no"?>
<svg width="46px" height="46px" viewBox="0 0 46 46" version="1.1" xmlns="http://www.w3.org/2000/svg" xmlns:xlink="http://www.w3.org/1999/xlink" xmlns:sketch="http://www.bohemiancoding.com/sketch/ns">
    <!-- Generator: Sketch 3.3.3 (12081) - http://www.bohemiancoding.com/sketch -->
    <title>Shape-Copy-3</title>
    <desc>Created with Sketch.</desc>
    <defs></defs>
    <g id="Page-1" stroke="none" stroke-width="1" fill="none" fill-rule="evenodd" sketch:type="MSPage">
        <path d="M10.7847352,0.724677505 C8.88696057,0.719521998 7.35223678,2.25424579 7.35739229,4.1520204 C7.36254877,6.0501839 8.90524381,7.59287894 10.8034073,7.59803542 L33.611307,7.65999511 L1.88269628,39.3886058 C0.544369088,40.726933 0.550280868,42.9030946 1.8958992,44.2487129 C3.24132266,45.5941364 5.41767916,45.6002431 6.75600636,44.2619159 L38.484617,12.5333052 L38.5469645,35.3408172 C38.5521211,37.2389806 40.0948161,38.7816756 41.9929795,38.7868322 C42.9414776,38.7892145 43.8000886,38.4070182 44.4202985,37.7868083 C45.0405084,37.1665984 45.4225109,36.3081811 45.4203225,35.3594893 L45.335436,4.25519117 C45.3302795,2.35702779 43.7875844,0.814332713 41.889421,0.809176207 L10.7847352,0.724677505 L10.7847352,0.724677505 Z" id="Shape-Copy-3" fill="#000000" sketch:type="MSShapeGroup"></path>
    </g>
</svg>