<?xml version="1.0" encoding="UTF-8" standalone="no"?>
<svg width="60px" height="51px" viewBox="0 0 60 51" version="1.1" xmlns="http://www.w3.org/2000/svg" xmlns:xlink="http://www.w3.org/1999/xlink" xmlns:sketch="http://www.bohemiancoding.com/sketch/ns">
    <!-- Generator: Sketch 3.3.1 (12005) - http://www.bohemiancoding.com/sketch -->
    <title>Shape Copy 2</title>
    <desc>Created with Sketch.</desc>
    <defs></defs>
    <g id="Page-1" stroke="none" stroke-width="1" fill="none" fill-rule="evenodd" sketch:type="MSPage">
        <path d="M37.0614968,1.00918109 C35.723213,-0.336393698 33.5527858,-0.336393698 32.214502,1.00918109 C30.8759439,2.35503156 30.8759439,4.53673181 32.214502,5.88258227 L48.2983104,22.0540149 L3.42727885,22.0540149 C1.53459838,22.0540149 0,23.5969738 0,25.4999655 C0,27.4026816 1.53459838,28.9459161 3.42727885,28.9459161 L48.2983104,28.9459161 L32.2150503,45.1173488 C30.8764923,46.4631993 30.8764923,48.6448995 32.2150503,49.99075 C32.8840552,50.6631239 33.7614385,51 34.6385477,51 C35.515657,51 36.3927662,50.6631239 37.0620452,49.99075 L58.9960815,27.9366661 C60.3346395,26.5908157 60.3346395,24.4091154 58.9960815,23.063265 L37.0614968,1.00918109 Z" id="Shape-Copy-2" fill="#000000" sketch:type="MSShapeGroup" transform="translate(30.000000, 25.500000) scale(-1, 1) translate(-30.000000, -25.500000) "></path>
    </g>
</svg>