<?xml version="1.0" encoding="UTF-8" standalone="no"?>
<svg width="46px" height="46px" viewBox="0 0 46 46" version="1.1" xmlns="http://www.w3.org/2000/svg" xmlns:xlink="http://www.w3.org/1999/xlink" xmlns:sketch="http://www.bohemiancoding.com/sketch/ns">
    <!-- Generator: Sketch 3.3.3 (12081) - http://www.bohemiancoding.com/sketch -->
    <title>Shape-Copy-3</title>
    <desc>Created with Sketch.</desc>
    <defs></defs>
    <g id="Page-1" stroke="none" stroke-width="1" fill="none" fill-rule="evenodd" sketch:type="MSPage">
        <path d="M0.580016566,10.6400742 C0.574861059,8.74229963 2.10958485,7.20757584 4.00735946,7.21273135 C5.90552296,7.21788783 7.448218,8.76058287 7.45337448,10.6587464 L7.51533417,33.466646 L39.2439449,1.73803534 C40.582272,0.399708149 42.7584337,0.405619929 44.104052,1.75123826 C45.4494755,3.09666172 45.4555821,5.27301822 44.1172549,6.61134542 L12.3886442,38.3399561 L35.1961562,38.4023035 C37.0943197,38.4074601 38.6370147,39.9501551 38.6421713,41.8483186 C38.6445535,42.7968166 38.2623572,43.6554277 37.6421474,44.2756375 C37.0219374,44.8958475 36.1635202,45.27785 35.2148283,45.2756615 L4.11053023,45.1907751 C2.21236685,45.1856186 0.669671773,43.6429235 0.664515267,41.7447601 L0.580016566,10.6400742 L0.580016566,10.6400742 Z" id="Shape-Copy-3" fill="#000000" sketch:type="MSShapeGroup"></path>
    </g>
</svg>