<?xml version="1.0" encoding="UTF-8" standalone="no"?>
<svg width="12px" height="12px" viewBox="0 0 12 12" version="1.1" xmlns="http://www.w3.org/2000/svg" xmlns:xlink="http://www.w3.org/1999/xlink" xmlns:sketch="http://www.bohemiancoding.com/sketch/ns">
    <!-- Generator: Sketch 3.3.2 (12043) - http://www.bohemiancoding.com/sketch -->
    <title>Artboard 1</title>
    <desc>Created with Sketch.</desc>
    <defs></defs>
    <g id="Page-1" stroke="none" stroke-width="1" fill="none" fill-rule="evenodd" sketch:type="MSPage">
        <g id="Artboard-1" sketch:type="MSArtboardGroup" fill="#979797">
            <path d="M10.9981638,7.41229936 C11.2672787,7.14464259 11.2672787,6.71055716 10.9981638,6.44290039 C10.7289937,6.17518879 10.2926536,6.17518879 10.0234835,6.44290039 L6.78919701,9.65966207 L6.78919701,0.685455771 C6.78919701,0.306919676 6.48060524,-2.77555756e-17 6.10000689,0 C5.71946367,1.38777878e-17 5.41081677,0.306919676 5.41081677,0.685455771 L5.41081677,9.65966207 L2.1765302,6.44301006 C1.9073601,6.17529846 1.4710201,6.17529846 1.20185,6.44301006 C1.0673752,6.57681103 1,6.75228771 1,6.92770955 C1,7.10313139 1.0673752,7.27855323 1.20185,7.41240903 L5.61266677,11.7992163 C5.88183687,12.0669279 6.31817692,12.0669279 6.58734701,11.7992163 L10.9981638,7.41229936 L10.9981638,7.41229936 Z" id="Shape-Copy" sketch:type="MSShapeGroup"></path>
        </g>
    </g>
</svg>