<?xml version="1.0" encoding="UTF-8" standalone="no"?>
<svg width="29px" height="18px" viewBox="0 0 29 18" version="1.1" xmlns="http://www.w3.org/2000/svg" xmlns:xlink="http://www.w3.org/1999/xlink" xmlns:sketch="http://www.bohemiancoding.com/sketch/ns">
    <!-- Generator: Sketch 3.3.1 (12005) - http://www.bohemiancoding.com/sketch -->
    <title>Behance Copy</title>
    <desc>Created with Sketch.</desc>
    <defs></defs>
    <g id="design" stroke="none" stroke-width="1" fill="none" fill-rule="evenodd" sketch:type="MSPage">
        <g id="about" sketch:type="MSArtboardGroup" transform="translate(-1186.000000, -1963.000000)" fill="#CDCDCD">
            <g id="footer" sketch:type="MSLayerGroup" transform="translate(0.000000, 1952.000000)">
                <path d="M1211.54403,13.5472256 L1204.45667,13.5472256 L1204.45667,11.7467548 L1211.54462,11.7467548 L1211.54462,13.5472256 L1211.54403,13.5472256 L1211.54403,13.5472256 Z M1199.73845,20.9303666 C1200.19576,21.6547921 1200.42428,22.5343796 1200.42428,23.5670441 C1200.42428,24.6349512 1200.16663,25.5929604 1199.64244,26.4391884 C1199.30896,26.9991705 1198.89492,27.4721892 1198.39743,27.8529985 C1197.83714,28.2933976 1197.1738,28.5953817 1196.41123,28.7567313 C1195.64622,28.91835 1194.81821,29 1193.92628,29 L1186,29 L1186,11 L1194.49973,11 C1196.64218,11.0356462 1198.16109,11.6704854 1199.05801,12.917229 C1199.59621,13.6818742 1199.86287,14.5993947 1199.86287,15.6658895 C1199.86287,16.7663491 1199.59299,17.6468782 1199.04953,18.3158839 C1198.74722,18.6909763 1198.30063,19.0321713 1197.70943,19.3401412 C1198.60491,19.6754176 1199.28437,20.2033853 1199.73845,20.9303666 L1199.73845,20.9303666 Z M1190.05896,18.0964914 L1193.78318,18.0964914 C1194.54852,18.0964914 1195.16721,17.9477189 1195.64372,17.6503083 C1196.1199,17.3533685 1196.3575,16.8255353 1196.3575,16.067683 C1196.3575,15.2304002 1196.0429,14.6746553 1195.41217,14.4071741 C1194.87003,14.2213429 1194.17638,14.1256361 1193.33469,14.1256361 L1190.05896,14.1256361 L1190.05896,18.0964914 L1190.05896,18.0964914 Z M1196.7161,23.3099204 C1196.7161,22.3749131 1196.34244,21.7285058 1195.59663,21.3816612 C1195.17957,21.1845309 1194.59114,21.0837798 1193.83665,21.0765833 L1190.05896,21.0765833 L1190.05896,25.8734895 L1193.77819,25.8734895 C1194.54227,25.8734895 1195.13367,25.7711916 1195.56047,25.557785 C1196.33014,25.1654075 1196.7161,24.4186526 1196.7161,23.3099204 L1196.7161,23.3099204 Z M1214.17365,20.3816164 C1214.25927,20.970519 1214.29801,21.8249524 1214.28229,22.9417554 L1205.10337,22.9417554 C1205.15401,24.2375294 1205.59139,25.1436834 1206.42091,25.6622352 C1206.92116,25.9874229 1207.52769,26.1462168 1208.23791,26.1462168 C1208.98681,26.1462168 1209.59721,25.9525838 1210.06708,25.5545567 C1210.32309,25.3435713 1210.54892,25.0457572 1210.74417,24.6699922 L1214.10855,24.6699922 C1214.02042,25.4353099 1213.61533,26.2115234 1212.88735,27.0003139 C1211.75946,28.2540522 1210.17763,28.8827037 1208.14611,28.8827037 C1206.46787,28.8827037 1204.98882,28.3525165 1203.70501,27.2959758 C1202.42548,26.2357359 1201.78286,24.5162426 1201.78286,22.1309719 C1201.78286,19.8942047 1202.35979,18.1821769 1203.51752,16.9905168 C1204.67954,15.7966371 1206.17917,15.2024213 1208.02767,15.2024213 C1209.12333,15.2024213 1210.11101,15.4027127 1210.99215,15.8053806 C1211.87054,16.208452 1212.59648,16.8428203 1213.16822,17.7146732 C1213.68563,18.4824795 1214.01839,19.3702724 1214.17365,20.3816164 L1214.17365,20.3816164 Z M1210.86208,20.717498 C1210.80039,19.8214998 1210.50788,19.1433472 1209.9812,18.6798789 C1209.45885,18.2151328 1208.80629,17.9818182 1208.02767,17.9818182 C1207.18027,17.9818182 1206.52593,18.2312073 1206.061,18.7213765 C1205.5929,19.2105369 1205.30165,19.8755745 1205.18229,20.7175653 L1210.86208,20.7175653 L1210.86208,20.717498 L1210.86208,20.717498 Z" id="Behance-Copy" sketch:type="MSShapeGroup"></path>
            </g>
        </g>
    </g>
</svg>