<?xml version="1.0" encoding="UTF-8" standalone="no"?>
<svg width="68px" height="68px" viewBox="0 0 68 68" version="1.1" xmlns="http://www.w3.org/2000/svg" xmlns:xlink="http://www.w3.org/1999/xlink" xmlns:sketch="http://www.bohemiancoding.com/sketch/ns">
    <!-- Generator: Sketch 3.3.2 (12043) - http://www.bohemiancoding.com/sketch -->
    <title>Artboard 1</title>
    <desc>Created with Sketch.</desc>
    <defs></defs>
    <g id="Page-1" stroke="none" stroke-width="1" fill="none" fill-rule="evenodd" sketch:type="MSPage">
        <g id="Artboard-1" sketch:type="MSArtboardGroup" fill="#000000">
            <g id="envelope" sketch:type="MSLayerGroup" transform="translate(0.000000, 9.000000)">
                <path d="M66.5676117,22.3848491 L61.5229708,17.3668491 C60.8308717,16.6819093 60.0395706,16.353458 59.1490675,16.353458 C58.3577664,16.353458 57.6958688,16.6120354 57.1381332,17.1711364 L53.1485605,21.168736 L36.8611393,37.284973 C36.629668,37.5155132 36.4820775,37.8161464 36.3997399,38.1095512 L33.6959349,47.607478 C33.4976412,48.3063269 33.5968432,48.8864558 34.0911997,49.3756829 C34.4541687,49.7390712 34.882611,49.8997374 35.3770777,49.8997374 C35.5092368,49.8997374 35.8054098,49.8368728 35.9375689,49.8368728 L45.433182,47.0834235 C45.796151,47.0203398 46.0928751,46.8526643 46.2575504,46.6220146 L62.5449716,30.505887 L66.5015872,26.4733505 C67.055024,25.9142495 67.3919801,25.2641371 67.4574534,24.5443699 C67.4573432,23.6917545 67.1605088,22.9718778 66.5676117,22.3848491 L66.5676117,22.3848491 Z M44.0151448,43.742617 L38.014748,45.4758849 L39.7619153,39.5142583 L54.3675323,25.0056693 L58.6870067,29.2269093 L44.0151448,43.742617 L44.0151448,43.742617 Z M61.2592037,26.6758535 L56.9397293,22.4477137 L59.2145408,20.183382 L63.4677704,24.4116313 L61.2592037,26.6758535 L61.2592037,26.6758535 Z" id="Shape" sketch:type="MSShapeGroup"></path>
                <path d="M29.1128037,35.4188571 C29.4714739,35.7822453 29.9041048,35.9431306 30.3985715,35.9431306 L30.4647061,35.9431306 C31.0253075,35.9431306 31.4585997,35.7822453 31.8166086,35.4188571 L57.2034963,9.57426248 L57.2034963,13.8653764 L60.8308717,13.8653764 L60.8308717,4.06703543 C60.8308717,1.84465 59.1160002,0.0415081844 56.874256,0.0415081844 L3.98957277,0.0415081844 C2.86837,0.0415081844 1.91250386,0.432933649 1.15427009,1.21567506 C0.395264759,2.00542576 0,2.95584271 0,4.06703543 L0,45.9370748 C0,47.0203398 0.38754905,47.9779851 1.15427009,48.7536077 C1.9041268,49.5153212 2.86914157,49.8997374 3.98957277,49.8997374 L31.6843393,49.8997374 L31.6843393,46.2656356 L3.98957277,46.2656356 C3.75887307,46.2656356 3.65967109,46.167615 3.65967109,45.9370748 L3.65967109,9.57426248 L29.1128037,35.4188571 L29.1128037,35.4188571 Z M3.65967109,4.06703543 C3.65967109,3.80845806 3.75876284,3.67571948 3.98957277,3.67571948 L56.8735946,3.67571948 C57.1042943,3.67571948 57.2033861,3.80845806 57.2033861,4.06703543 L57.2033861,4.39559625 L30.4647061,31.5891521 L3.65967109,4.39559625 L3.65967109,4.06703543 L3.65967109,4.06703543 Z" id="Shape" sketch:type="MSShapeGroup"></path>
            </g>
        </g>
    </g>
</svg>