<?xml version="1.0" encoding="UTF-8" standalone="no"?>
<svg width="18px" height="18px" viewBox="0 0 18 18" version="1.1" xmlns="http://www.w3.org/2000/svg" xmlns:xlink="http://www.w3.org/1999/xlink" xmlns:sketch="http://www.bohemiancoding.com/sketch/ns">
    <!-- Generator: Sketch 3.3.1 (12005) - http://www.bohemiancoding.com/sketch -->
    <title>Shape Copy</title>
    <desc>Created with Sketch.</desc>
    <defs></defs>
    <g id="design" stroke="none" stroke-width="1" fill="none" fill-rule="evenodd" sketch:type="MSPage">
        <g id="about" sketch:type="MSArtboardGroup" transform="translate(-1237.000000, -1963.000000)" fill="#CCCCCC">
            <g id="footer" sketch:type="MSLayerGroup" transform="translate(0.000000, 1952.000000)">
                <path d="M1246.01208,11 C1241.04286,11.0001859 1237.00019,15.0372841 1237,20 C1237.00019,24.9627159 1241.04286,29 1246.01208,29 C1250.98131,29 1255.02398,24.9627159 1255.02417,20 C1255.02398,15.0372841 1250.98131,11.0001859 1246.01208,11 L1246.01208,11 Z M1251.9415,15.2482855 C1252.96918,16.5219161 1253.59456,18.1312898 1253.62356,19.8836239 C1253.2815,19.8144675 1251.83256,19.543419 1250.10124,19.543419 C1249.54278,19.543419 1248.95495,19.5718623 1248.36563,19.6441791 C1248.316,19.5237131 1248.2658,19.4025035 1248.21393,19.2809221 C1248.06075,18.9213831 1247.8966,18.5648186 1247.72556,18.2140172 C1250.38939,17.1162522 1251.67547,15.5927663 1251.9415,15.2482855 L1251.9415,15.2482855 Z M1246.01208,12.4084111 C1247.9321,12.4084111 1249.68741,13.1220978 1251.02815,14.2973849 C1250.81567,14.5872098 1249.66492,16.0251797 1247.09591,16.9967157 C1245.90705,14.8221928 1244.60479,13.0228249 1244.29507,12.6047261 C1244.84721,12.476638 1245.42165,12.4084111 1246.01208,12.4084111 L1246.01208,12.4084111 Z M1242.74165,13.1471949 C1243.00415,13.5082211 1244.30734,15.3269231 1245.52687,17.4841568 C1242.25384,18.3441502 1239.34704,18.4006651 1238.64581,18.4006651 L1238.57145,18.4006651 C1239.07506,16.0777906 1240.64484,14.1475461 1242.74165,13.1471949 L1242.74165,13.1471949 Z M1238.39837,20.011712 C1238.39837,19.9492481 1238.39986,19.8865984 1238.40172,19.8239486 C1238.44727,19.8246922 1238.514,19.8254358 1238.60138,19.8254358 C1239.54577,19.8254358 1242.8255,19.7467983 1246.20505,18.7436586 C1246.4101,19.1452119 1246.60568,19.5523424 1246.78675,19.959101 C1246.70216,19.9836404 1246.61757,20.0085516 1246.53392,20.0355077 C1242.72901,21.2647071 1240.63685,24.5180327 1240.31523,25.0495332 C1239.12321,23.7065604 1238.39837,21.9425143 1238.39837,20.011712 L1238.39837,20.011712 Z M1246.01208,27.6151987 C1244.26514,27.6151987 1242.65465,27.0236512 1241.36838,26.0322234 C1241.5857,25.6057589 1243.16403,22.7632818 1247.33442,21.3117409 C1247.3374,21.3108114 1247.34037,21.3096959 1247.34316,21.3085805 C1248.38813,24.0313352 1248.83114,26.3162852 1248.95328,27.024023 C1248.04792,27.4045691 1247.05408,27.6151987 1246.01208,27.6151987 L1246.01208,27.6151987 Z M1250.32395,26.2746427 C1250.22189,25.689044 1249.81178,23.5474263 1248.8646,20.9356564 C1249.39591,20.8534867 1249.91291,20.8209535 1250.39738,20.8209535 C1251.98854,20.8207676 1253.23335,21.1691523 1253.52262,21.257085 C1253.1787,23.3319631 1251.99114,25.1261258 1250.32395,26.2746427 L1250.32395,26.2746427 Z" id="Shape-Copy" sketch:type="MSShapeGroup"></path>
            </g>
        </g>
    </g>
</svg>