<?xml version="1.0" encoding="UTF-8" standalone="no"?>
<svg width="19px" height="18px" viewBox="0 0 19 18" version="1.1" xmlns="http://www.w3.org/2000/svg" xmlns:xlink="http://www.w3.org/1999/xlink" xmlns:sketch="http://www.bohemiancoding.com/sketch/ns">
    <!-- Generator: Sketch 3.3.1 (12005) - http://www.bohemiancoding.com/sketch -->
    <title>LinkedIn Copy</title>
    <desc>Created with Sketch.</desc>
    <defs></defs>
    <g id="design" stroke="none" stroke-width="1" fill="none" fill-rule="evenodd" sketch:type="MSPage">
        <g id="about" sketch:type="MSArtboardGroup" transform="translate(-1148.000000, -1963.000000)" fill="#CCCCCC">
            <g id="footer" sketch:type="MSLayerGroup" transform="translate(0.000000, 1952.000000)">
                <path d="M1166.85714,22.0357857 L1166.85714,29 L1162.81545,29 L1162.81545,22.5022068 C1162.81545,20.8699082 1162.23086,19.7559282 1160.7679,19.7559282 C1159.65111,19.7559282 1158.98651,20.5066691 1158.69413,21.2328845 C1158.58751,21.4925037 1158.56006,21.8538596 1158.56006,22.2172739 L1158.56006,29 L1154.51701,29 C1154.51701,29 1154.57146,17.9948711 1154.51701,16.8546576 L1158.55967,16.8546576 L1158.55967,18.5762113 C1158.55147,18.5890872 1158.54082,18.6029703 1158.5331,18.615452 L1158.55967,18.615452 L1158.55967,18.5762113 C1159.09678,17.7498358 1160.05599,16.5693306 1162.20302,16.5693306 C1164.86304,16.5692868 1166.85714,18.3052053 1166.85714,22.0357857 L1166.85714,22.0357857 Z M1150.2878,11 C1148.90468,11 1148,11.9062584 1148,13.098019 C1148,14.2638089 1148.8785,15.1975708 1150.23414,15.1975708 L1150.26115,15.1975708 C1151.67106,15.1975708 1152.54789,14.2639841 1152.54789,13.098019 C1152.52133,11.9062584 1151.67106,11 1150.2878,11 L1150.2878,11 Z M1148.24012,29 L1152.28164,29 L1152.28164,16.8546576 L1148.24012,16.8546576 L1148.24012,29 L1148.24012,29 Z" id="LinkedIn-Copy" sketch:type="MSShapeGroup"></path>
            </g>
        </g>
    </g>
</svg>