<?xml version="1.0" encoding="UTF-8" standalone="no"?>
<svg width="56px" height="46px" viewBox="0 0 56 46" version="1.1" xmlns="http://www.w3.org/2000/svg" xmlns:xlink="http://www.w3.org/1999/xlink" xmlns:sketch="http://www.bohemiancoding.com/sketch/ns">
    <!-- Generator: Sketch 3.3.2 (12043) - http://www.bohemiancoding.com/sketch -->
    <title>Artboard 1</title>
    <desc>Created with Sketch.</desc>
    <defs></defs>
    <g id="Page-1" stroke="none" stroke-width="1" fill="none" fill-rule="evenodd" sketch:type="MSPage">
        <g id="Artboard-1" sketch:type="MSArtboardGroup" fill="#000000">
            <path d="M7,6.63105043 L7,43.2533291 L7,46 L9.73913042,46 L46.2608677,46 L48.999998,46 L48.9999981,43.2533292 L48.9999997,6.63105056 L49,0 L44.3240116,4.68886081 L26.0631422,23.0000001 L29.9368575,23.0000001 L11.6759881,4.68886081 L7,2.95258691e-07 L7,6.63105043 L7,6.63105043 Z M12.4782608,6.63105043 L7.80227272,8.57324005 L26.0631422,26.8843794 L27.9999999,28.826569 L29.9368575,26.8843794 L48.197727,8.57324005 L43.5217389,6.63105031 L43.5217372,43.253329 L46.2608677,40.5066582 L9.73913042,40.5066582 L12.4782608,43.2533291 L12.4782608,6.63105043 L12.4782608,6.63105043 Z" id="Shape" sketch:type="MSShapeGroup"></path>
        </g>
    </g>
</svg>