<?xml version="1.0" encoding="UTF-8" standalone="no"?>
<svg width="56px" height="46px" viewBox="0 0 56 46" version="1.1" xmlns="http://www.w3.org/2000/svg" xmlns:xlink="http://www.w3.org/1999/xlink" xmlns:sketch="http://www.bohemiancoding.com/sketch/ns">
    <!-- Generator: Sketch 3.3.2 (12043) - http://www.bohemiancoding.com/sketch -->
    <title>Artboard 1</title>
    <desc>Created with Sketch.</desc>
    <defs></defs>
    <g id="Page-1" stroke="none" stroke-width="1" fill="none" fill-rule="evenodd" sketch:type="MSPage">
        <g id="Artboard-1" sketch:type="MSArtboardGroup" fill="#000000">
            <path d="M3,43 L3,46 L5.98551187,46 L45.7923368,46 L48.7778486,46 L48.7778486,43 L48.7778486,23 L48.7778486,20 L45.7923368,20 L25.8889243,20 L28,25.1213203 L47.9034124,5.12132034 L53,0 L45.7923368,0 L5.98551187,0 L3,0 L3,3 L3,43 Z M5.98551187,6 L45.7923368,6 L43.6812611,0.878679656 L23.7778486,20.8786797 L18.6812611,26 L25.8889243,26 L45.7923368,26 L42.8068249,23 L42.8068249,43 L45.7923368,40 L5.98551187,40 L8.97102373,43 L8.97102373,3 L5.98551187,6 Z" id="Shape" sketch:type="MSShapeGroup"></path>
        </g>
    </g>
</svg>