<?xml version="1.0" encoding="UTF-8" standalone="no"?>
<svg width="56px" height="46px" viewBox="0 0 56 46" version="1.1" xmlns="http://www.w3.org/2000/svg" xmlns:xlink="http://www.w3.org/1999/xlink" xmlns:sketch="http://www.bohemiancoding.com/sketch/ns">
    <!-- Generator: Sketch 3.3.2 (12043) - http://www.bohemiancoding.com/sketch -->
    <title>Artboard 1</title>
    <desc>Created with Sketch.</desc>
    <defs></defs>
    <g id="Page-1" stroke="none" stroke-width="1" fill="none" fill-rule="evenodd" sketch:type="MSPage">
        <g id="Artboard-1" sketch:type="MSArtboardGroup" fill="#000000">
            <g id="Shape-+-Shape" sketch:type="MSLayerGroup">
                <path d="M25.8786797,25.1213203 L45.8786797,45.1213203 L48,40 L8,40 L10.1213203,45.1213203 L30.1213203,25.1213203 L25.8786797,25.1213203 L25.8786797,25.1213203 Z M30.1213203,20.8786797 L28,18.7573593 L25.8786797,20.8786797 L5.87867966,40.8786797 L0.757359313,46 L8,46 L48,46 L55.2426407,46 L50.1213203,40.8786797 L30.1213203,20.8786797 L30.1213203,20.8786797 Z" id="Shape" sketch:type="MSShapeGroup"></path>
                <path d="M8,6 L48,6 L45.8786797,0.878679656 L25.8786797,20.8786797 L30.1213203,20.8786797 L10.1213203,0.878679656 L8,6 L8,6 Z M8,0 L0.757359313,0 L5.87867966,5.12132034 L25.8786797,25.1213203 L28,27.2426407 L30.1213203,25.1213203 L50.1213203,5.12132034 L55.2426407,0 L48,0 L8,0 L8,0 Z" id="Shape" sketch:type="MSShapeGroup"></path>
            </g>
        </g>
    </g>
</svg>